<svg xmlns="http://www.w3.org/2000/svg" width="760" height="240" viewBox="0 0 760 240">
  <rect width="760" height="240" fill="#0d0d0d"/>

  <text x="380" y="20" text-anchor="middle" fill="#656363" font-family="monospace" font-size="10">// environments start identical — then humans touch them</text>

  <!-- Timeline arrow at top -->
  <line x1="60" y1="44" x2="700" y2="44" stroke="#262626" stroke-width="1.5"/>
  <polygon points="698,40 706,44 698,48" fill="#262626"/>
  <text x="60" y="38" fill="#656363" font-family="monospace" font-size="9">Day 1</text>
  <text x="660" y="38" fill="#656363" font-family="monospace" font-size="9">18 months later</text>

  <!-- DEV row -->
  <text x="30" y="90" text-anchor="middle" fill="#4ade80" font-family="monospace" font-size="10" font-weight="bold">DEV</text>

  <rect x="60"  y="72" width="100" height="34" rx="3" fill="#141414" stroke="#4ade80" stroke-width="1"/>
  <text x="110" y="88" text-anchor="middle" fill="#b7b1b1" font-family="monospace" font-size="8">Node 18.0</text>
  <text x="110" y="100" text-anchor="middle" fill="#656363" font-family="monospace" font-size="8">npm 8.6</text>

  <line x1="162" y1="89" x2="198" y2="89" stroke="#262626" stroke-width="1" stroke-dasharray="3,2"/>

  <rect x="200" y="72" width="100" height="34" rx="3" fill="#141414" stroke="#4ade80" stroke-width="1"/>
  <text x="250" y="88" text-anchor="middle" fill="#b7b1b1" font-family="monospace" font-size="8">Node 18.12</text>
  <text x="250" y="100" text-anchor="middle" fill="#656363" font-family="monospace" font-size="8">npm 8.19 ↑</text>

  <line x1="302" y1="89" x2="338" y2="89" stroke="#262626" stroke-width="1" stroke-dasharray="3,2"/>

  <rect x="340" y="72" width="100" height="34" rx="3" fill="#141414" stroke="#4ade80" stroke-width="1"/>
  <text x="390" y="88" text-anchor="middle" fill="#b7b1b1" font-family="monospace" font-size="8">Node 20.0 ↑↑</text>
  <text x="390" y="100" text-anchor="middle" fill="#656363" font-family="monospace" font-size="8">npm 9.0 ↑↑</text>

  <line x1="442" y1="89" x2="478" y2="89" stroke="#262626" stroke-width="1" stroke-dasharray="3,2"/>

  <rect x="480" y="72" width="100" height="34" rx="3" fill="#141414" stroke="#4ade80" stroke-width="1"/>
  <text x="530" y="88" text-anchor="middle" fill="#b7b1b1" font-family="monospace" font-size="8">Node 20.9 ↑</text>
  <text x="530" y="100" text-anchor="middle" fill="#4ade80" font-family="monospace" font-size="8">new packages ✓</text>

  <!-- STAGING row -->
  <text x="30" y="148" text-anchor="middle" fill="#fbbf24" font-family="monospace" font-size="10" font-weight="bold">STG</text>

  <rect x="60"  y="130" width="100" height="34" rx="3" fill="#141414" stroke="#fbbf24" stroke-width="1"/>
  <text x="110" y="146" text-anchor="middle" fill="#b7b1b1" font-family="monospace" font-size="8">Node 18.0</text>
  <text x="110" y="158" text-anchor="middle" fill="#656363" font-family="monospace" font-size="8">npm 8.6</text>

  <line x1="162" y1="147" x2="338" y2="147" stroke="#262626" stroke-width="1" stroke-dasharray="3,2"/>

  <rect x="340" y="130" width="100" height="34" rx="3" fill="#141414" stroke="#fbbf24" stroke-width="1"/>
  <text x="390" y="146" text-anchor="middle" fill="#fbbf24" font-family="monospace" font-size="8">Node 18.0 ← same</text>
  <text x="390" y="158" text-anchor="middle" fill="#fbbf24" font-family="monospace" font-size="8">npm 8.6 ← same</text>

  <line x1="442" y1="147" x2="478" y2="147" stroke="#262626" stroke-width="1" stroke-dasharray="3,2"/>

  <rect x="480" y="130" width="100" height="34" rx="3" fill="#1c1400" stroke="#f87171" stroke-width="1.5"/>
  <text x="530" y="146" text-anchor="middle" fill="#f87171" font-family="monospace" font-size="8">Node 20.9 ✗</text>
  <text x="530" y="158" text-anchor="middle" fill="#f87171" font-family="monospace" font-size="8">test failures!</text>

  <!-- PROD row -->
  <text x="30" y="206" text-anchor="middle" fill="#f87171" font-family="monospace" font-size="10" font-weight="bold">PRD</text>

  <rect x="60"  y="188" width="100" height="34" rx="3" fill="#141414" stroke="#f87171" stroke-width="1"/>
  <text x="110" y="204" text-anchor="middle" fill="#b7b1b1" font-family="monospace" font-size="8">Node 18.0</text>
  <text x="110" y="216" text-anchor="middle" fill="#656363" font-family="monospace" font-size="8">npm 8.6</text>

  <line x1="162" y1="205" x2="478" y2="205" stroke="#262626" stroke-width="1" stroke-dasharray="3,2"/>

  <rect x="480" y="188" width="100" height="34" rx="3" fill="#1c0a0a" stroke="#f87171" stroke-width="2"/>
  <text x="530" y="204" text-anchor="middle" fill="#f87171" font-family="monospace" font-size="8">Node 18.0 ← ancient</text>
  <text x="530" y="216" text-anchor="middle" fill="#f87171" font-family="monospace" font-size="8">npm 8.6 ← ancient</text>

  <!-- Divergence bracket on right -->
  <line x1="596" y1="89" x2="616" y2="89" stroke="#f87171" stroke-width="1"/>
  <line x1="596" y1="205" x2="616" y2="205" stroke="#f87171" stroke-width="1"/>
  <line x1="616" y1="89" x2="616" y2="205" stroke="#f87171" stroke-width="1"/>
  <text x="624" y="143" fill="#f87171" font-family="monospace" font-size="9" font-weight="bold">drift</text>
  <text x="624" y="157" fill="#f87171" font-family="monospace" font-size="9" font-weight="bold">zone</text>

  <!-- Vertical divider showing "Day 1 identical" -->
  <line x1="162" y1="58" x2="162" y2="230" stroke="#262626" stroke-width="1" stroke-dasharray="2,4"/>
  <text x="162" y="228" text-anchor="middle" fill="#4ade80" font-family="monospace" font-size="8">all identical</text>
</svg>
