<svg xmlns="http://www.w3.org/2000/svg" width="760" height="270" viewBox="0 0 760 270">
  <rect width="760" height="270" fill="#0d0d0d"/>

  <text x="380" y="20" text-anchor="middle" fill="#656363" font-family="monospace" font-size="10">// same 32 GB server — how many workloads fit?</text>

  <!-- LEFT: VMs -->
  <rect x="16" y="30" width="346" height="228" rx="4" fill="#141414" stroke="#fbbf24" stroke-width="1.5"/>
  <text x="189" y="50" text-anchor="middle" fill="#fbbf24" font-family="monospace" font-size="11" font-weight="bold">Virtual Machines</text>
  <text x="189" y="64" text-anchor="middle" fill="#656363" font-family="monospace" font-size="9">~2 GB OS + ~512 MB app = ~2.5 GB per VM</text>

  <!-- 10 VM boxes, 2 rows of 5 -->
  <!-- Row 1 -->
  <rect x="28"  y="74" width="56" height="60" rx="2" fill="#1c1400" stroke="#fbbf24" stroke-width="1"/>
  <text x="56" y="96" text-anchor="middle" fill="#fbbf24" font-family="monospace" font-size="8">VM</text>
  <rect x="28" y="108" width="56" height="20" rx="1" fill="#0d1a0d" stroke="#4ade80" stroke-width="1"/>
  <text x="56" y="122" text-anchor="middle" fill="#4ade80" font-family="monospace" font-size="7">app</text>

  <rect x="92"  y="74" width="56" height="60" rx="2" fill="#1c1400" stroke="#fbbf24" stroke-width="1"/>
  <text x="120" y="96" text-anchor="middle" fill="#fbbf24" font-family="monospace" font-size="8">VM</text>
  <rect x="92" y="108" width="56" height="20" rx="1" fill="#0d1a0d" stroke="#4ade80" stroke-width="1"/>
  <text x="120" y="122" text-anchor="middle" fill="#4ade80" font-family="monospace" font-size="7">app</text>

  <rect x="156" y="74" width="56" height="60" rx="2" fill="#1c1400" stroke="#fbbf24" stroke-width="1"/>
  <text x="184" y="96" text-anchor="middle" fill="#fbbf24" font-family="monospace" font-size="8">VM</text>
  <rect x="156" y="108" width="56" height="20" rx="1" fill="#0d1a0d" stroke="#4ade80" stroke-width="1"/>
  <text x="184" y="122" text-anchor="middle" fill="#4ade80" font-family="monospace" font-size="7">app</text>

  <rect x="220" y="74" width="56" height="60" rx="2" fill="#1c1400" stroke="#fbbf24" stroke-width="1"/>
  <text x="248" y="96" text-anchor="middle" fill="#fbbf24" font-family="monospace" font-size="8">VM</text>
  <rect x="220" y="108" width="56" height="20" rx="1" fill="#0d1a0d" stroke="#4ade80" stroke-width="1"/>
  <text x="248" y="122" text-anchor="middle" fill="#4ade80" font-family="monospace" font-size="7">app</text>

  <rect x="284" y="74" width="56" height="60" rx="2" fill="#1c1400" stroke="#fbbf24" stroke-width="1"/>
  <text x="312" y="96" text-anchor="middle" fill="#fbbf24" font-family="monospace" font-size="8">VM</text>
  <rect x="284" y="108" width="56" height="20" rx="1" fill="#0d1a0d" stroke="#4ade80" stroke-width="1"/>
  <text x="312" y="122" text-anchor="middle" fill="#4ade80" font-family="monospace" font-size="7">app</text>

  <!-- Row 2 -->
  <rect x="28"  y="142" width="56" height="60" rx="2" fill="#1c1400" stroke="#fbbf24" stroke-width="1"/>
  <text x="56" y="164" text-anchor="middle" fill="#fbbf24" font-family="monospace" font-size="8">VM</text>
  <rect x="28" y="176" width="56" height="20" rx="1" fill="#0d1a0d" stroke="#4ade80" stroke-width="1"/>
  <text x="56" y="190" text-anchor="middle" fill="#4ade80" font-family="monospace" font-size="7">app</text>

  <rect x="92"  y="142" width="56" height="60" rx="2" fill="#1c1400" stroke="#fbbf24" stroke-width="1"/>
  <text x="120" y="164" text-anchor="middle" fill="#fbbf24" font-family="monospace" font-size="8">VM</text>
  <rect x="92" y="176" width="56" height="20" rx="1" fill="#0d1a0d" stroke="#4ade80" stroke-width="1"/>
  <text x="120" y="190" text-anchor="middle" fill="#4ade80" font-family="monospace" font-size="7">app</text>

  <rect x="156" y="142" width="56" height="60" rx="2" fill="#1c1400" stroke="#fbbf24" stroke-width="1"/>
  <text x="184" y="164" text-anchor="middle" fill="#fbbf24" font-family="monospace" font-size="8">VM</text>
  <rect x="156" y="176" width="56" height="20" rx="1" fill="#0d1a0d" stroke="#4ade80" stroke-width="1"/>
  <text x="184" y="190" text-anchor="middle" fill="#4ade80" font-family="monospace" font-size="7">app</text>

  <rect x="220" y="142" width="56" height="60" rx="2" fill="#1c1400" stroke="#fbbf24" stroke-width="1"/>
  <text x="248" y="164" text-anchor="middle" fill="#fbbf24" font-family="monospace" font-size="8">VM</text>
  <rect x="220" y="176" width="56" height="20" rx="1" fill="#0d1a0d" stroke="#4ade80" stroke-width="1"/>
  <text x="248" y="190" text-anchor="middle" fill="#4ade80" font-family="monospace" font-size="7">app</text>

  <rect x="284" y="142" width="56" height="60" rx="2" fill="#1c1400" stroke="#fbbf24" stroke-width="1"/>
  <text x="312" y="164" text-anchor="middle" fill="#fbbf24" font-family="monospace" font-size="8">VM</text>
  <rect x="284" y="176" width="56" height="20" rx="1" fill="#0d1a0d" stroke="#4ade80" stroke-width="1"/>
  <text x="312" y="190" text-anchor="middle" fill="#4ade80" font-family="monospace" font-size="7">app</text>

  <text x="189" y="222" text-anchor="middle" fill="#fbbf24" font-family="monospace" font-size="11" font-weight="bold">~10 VMs</text>
  <text x="189" y="240" text-anchor="middle" fill="#656363" font-family="monospace" font-size="9">20 GB consumed by Guest OSes</text>
  <text x="189" y="254" text-anchor="middle" fill="#656363" font-family="monospace" font-size="9">boot time: 30–60s each</text>

  <!-- RIGHT: Containers -->
  <rect x="398" y="30" width="346" height="228" rx="4" fill="#141414" stroke="#4ade80" stroke-width="1.5"/>
  <text x="571" y="50" text-anchor="middle" fill="#4ade80" font-family="monospace" font-size="11" font-weight="bold">Containers</text>
  <text x="571" y="64" text-anchor="middle" fill="#656363" font-family="monospace" font-size="9">no Guest OS — ~512 MB app only</text>

  <!-- Shared kernel label -->
  <rect x="410" y="230" width="322" height="20" rx="2" fill="#0a1318" stroke="#67e8f9" stroke-width="1"/>
  <text x="571" y="244" text-anchor="middle" fill="#67e8f9" font-family="monospace" font-size="9">Host OS Kernel — shared by all containers</text>

  <!-- 5 rows of 8 small containers = ~40 containers -->
  <!-- Row 1 -->
  <rect x="410" y="74" width="36" height="28" rx="2" fill="#0d1a0d" stroke="#4ade80" stroke-width="1"/>
  <text x="428" y="92" text-anchor="middle" fill="#4ade80" font-family="monospace" font-size="7">app</text>
  <rect x="452" y="74" width="36" height="28" rx="2" fill="#0d1a0d" stroke="#4ade80" stroke-width="1"/>
  <text x="470" y="92" text-anchor="middle" fill="#4ade80" font-family="monospace" font-size="7">app</text>
  <rect x="494" y="74" width="36" height="28" rx="2" fill="#0d1a0d" stroke="#4ade80" stroke-width="1"/>
  <text x="512" y="92" text-anchor="middle" fill="#4ade80" font-family="monospace" font-size="7">app</text>
  <rect x="536" y="74" width="36" height="28" rx="2" fill="#0d1a0d" stroke="#4ade80" stroke-width="1"/>
  <text x="554" y="92" text-anchor="middle" fill="#4ade80" font-family="monospace" font-size="7">app</text>
  <rect x="578" y="74" width="36" height="28" rx="2" fill="#0d1a0d" stroke="#4ade80" stroke-width="1"/>
  <text x="596" y="92" text-anchor="middle" fill="#4ade80" font-family="monospace" font-size="7">app</text>
  <rect x="620" y="74" width="36" height="28" rx="2" fill="#0d1a0d" stroke="#4ade80" stroke-width="1"/>
  <text x="638" y="92" text-anchor="middle" fill="#4ade80" font-family="monospace" font-size="7">app</text>
  <rect x="662" y="74" width="36" height="28" rx="2" fill="#0d1a0d" stroke="#4ade80" stroke-width="1"/>
  <text x="680" y="92" text-anchor="middle" fill="#4ade80" font-family="monospace" font-size="7">app</text>
  <rect x="704" y="74" width="36" height="28" rx="2" fill="#0d1a0d" stroke="#4ade80" stroke-width="1"/>
  <text x="722" y="92" text-anchor="middle" fill="#4ade80" font-family="monospace" font-size="7">app</text>

  <!-- Row 2 -->
  <rect x="410" y="108" width="36" height="28" rx="2" fill="#0d1a0d" stroke="#4ade80" stroke-width="1"/>
  <text x="428" y="126" text-anchor="middle" fill="#4ade80" font-family="monospace" font-size="7">app</text>
  <rect x="452" y="108" width="36" height="28" rx="2" fill="#0d1a0d" stroke="#4ade80" stroke-width="1"/>
  <text x="470" y="126" text-anchor="middle" fill="#4ade80" font-family="monospace" font-size="7">app</text>
  <rect x="494" y="108" width="36" height="28" rx="2" fill="#0d1a0d" stroke="#4ade80" stroke-width="1"/>
  <text x="512" y="126" text-anchor="middle" fill="#4ade80" font-family="monospace" font-size="7">app</text>
  <rect x="536" y="108" width="36" height="28" rx="2" fill="#0d1a0d" stroke="#4ade80" stroke-width="1"/>
  <text x="554" y="126" text-anchor="middle" fill="#4ade80" font-family="monospace" font-size="7">app</text>
  <rect x="578" y="108" width="36" height="28" rx="2" fill="#0d1a0d" stroke="#4ade80" stroke-width="1"/>
  <text x="596" y="126" text-anchor="middle" fill="#4ade80" font-family="monospace" font-size="7">app</text>
  <rect x="620" y="108" width="36" height="28" rx="2" fill="#0d1a0d" stroke="#4ade80" stroke-width="1"/>
  <text x="638" y="126" text-anchor="middle" fill="#4ade80" font-family="monospace" font-size="7">app</text>
  <rect x="662" y="108" width="36" height="28" rx="2" fill="#0d1a0d" stroke="#4ade80" stroke-width="1"/>
  <text x="680" y="126" text-anchor="middle" fill="#4ade80" font-family="monospace" font-size="7">app</text>
  <rect x="704" y="108" width="36" height="28" rx="2" fill="#0d1a0d" stroke="#4ade80" stroke-width="1"/>
  <text x="722" y="126" text-anchor="middle" fill="#4ade80" font-family="monospace" font-size="7">app</text>

  <!-- Row 3 -->
  <rect x="410" y="142" width="36" height="28" rx="2" fill="#0d1a0d" stroke="#4ade80" stroke-width="1"/>
  <text x="428" y="160" text-anchor="middle" fill="#4ade80" font-family="monospace" font-size="7">app</text>
  <rect x="452" y="142" width="36" height="28" rx="2" fill="#0d1a0d" stroke="#4ade80" stroke-width="1"/>
  <text x="470" y="160" text-anchor="middle" fill="#4ade80" font-family="monospace" font-size="7">app</text>
  <rect x="494" y="142" width="36" height="28" rx="2" fill="#0d1a0d" stroke="#4ade80" stroke-width="1"/>
  <text x="512" y="160" text-anchor="middle" fill="#4ade80" font-family="monospace" font-size="7">app</text>
  <rect x="536" y="142" width="36" height="28" rx="2" fill="#0d1a0d" stroke="#4ade80" stroke-width="1"/>
  <text x="554" y="160" text-anchor="middle" fill="#4ade80" font-family="monospace" font-size="7">app</text>
  <rect x="578" y="142" width="36" height="28" rx="2" fill="#0d1a0d" stroke="#4ade80" stroke-width="1"/>
  <text x="596" y="160" text-anchor="middle" fill="#4ade80" font-family="monospace" font-size="7">app</text>
  <rect x="620" y="142" width="36" height="28" rx="2" fill="#0d1a0d" stroke="#4ade80" stroke-width="1"/>
  <text x="638" y="160" text-anchor="middle" fill="#4ade80" font-family="monospace" font-size="7">app</text>
  <rect x="662" y="142" width="36" height="28" rx="2" fill="#0d1a0d" stroke="#4ade80" stroke-width="1"/>
  <text x="680" y="160" text-anchor="middle" fill="#4ade80" font-family="monospace" font-size="7">app</text>
  <rect x="704" y="142" width="36" height="28" rx="2" fill="#0d1a0d" stroke="#4ade80" stroke-width="1"/>
  <text x="722" y="160" text-anchor="middle" fill="#4ade80" font-family="monospace" font-size="7">app</text>

  <!-- Row 4 -->
  <rect x="410" y="176" width="36" height="28" rx="2" fill="#0d1a0d" stroke="#4ade80" stroke-width="1"/>
  <text x="428" y="194" text-anchor="middle" fill="#4ade80" font-family="monospace" font-size="7">app</text>
  <rect x="452" y="176" width="36" height="28" rx="2" fill="#0d1a0d" stroke="#4ade80" stroke-width="1"/>
  <text x="470" y="194" text-anchor="middle" fill="#4ade80" font-family="monospace" font-size="7">app</text>
  <rect x="494" y="176" width="36" height="28" rx="2" fill="#0d1a0d" stroke="#4ade80" stroke-width="1"/>
  <text x="512" y="194" text-anchor="middle" fill="#4ade80" font-family="monospace" font-size="7">app</text>
  <rect x="536" y="176" width="36" height="28" rx="2" fill="#0d1a0d" stroke="#4ade80" stroke-width="1"/>
  <text x="554" y="194" text-anchor="middle" fill="#4ade80" font-family="monospace" font-size="7">app</text>
  <rect x="578" y="176" width="36" height="28" rx="2" fill="#0d1a0d" stroke="#4ade80" stroke-width="1"/>
  <text x="596" y="194" text-anchor="middle" fill="#4ade80" font-family="monospace" font-size="7">app</text>
  <rect x="620" y="176" width="36" height="28" rx="2" fill="#0d1a0d" stroke="#4ade80" stroke-width="1"/>
  <text x="638" y="194" text-anchor="middle" fill="#4ade80" font-family="monospace" font-size="7">app</text>
  <rect x="662" y="176" width="36" height="28" rx="2" fill="#0d1a0d" stroke="#4ade80" stroke-width="1"/>
  <text x="680" y="194" text-anchor="middle" fill="#4ade80" font-family="monospace" font-size="7">app</text>
  <rect x="704" y="176" width="36" height="28" rx="2" fill="#0d1a0d" stroke="#4ade80" stroke-width="1"/>
  <text x="722" y="194" text-anchor="middle" fill="#4ade80" font-family="monospace" font-size="7">app</text>

  <text x="571" y="222" text-anchor="middle" fill="#4ade80" font-family="monospace" font-size="11" font-weight="bold">~40+ containers</text>
  <text x="571" y="240" text-anchor="middle" fill="#656363" font-family="monospace" font-size="9">0 GB wasted on duplicate OSes</text>
  <text x="571" y="254" text-anchor="middle" fill="#656363" font-family="monospace" font-size="9">boot time: &lt; 1 second</text>
</svg>
